<svg width="20" height="10" viewBox="0 0 20 10" fill="none" xmlns="http://www.w3.org/2000/svg">
<path d="M6.16 8.9925L2.6085 3.431V8.9935H0.25V0.2595H3.133L6.6535 5.798V0.259H9.011V8.9925H6.16ZM17.736 9.002C18.955 8.257 19.75 6.4995 19.75 4.55C19.75 2.7325 19.058 1.07 17.96 0.25H12.098C11 1.07 10.308 2.7325 10.308 4.55C10.308 6.5 11.103 8.257 12.322 9.002H17.736Z" stroke="#000000" stroke-width="0.5" stroke-linecap="round" stroke-linejoin="round"/>
<path d="M15.0291 7.51277C16.2851 7.51277 17.0816 6.69627 17.0816 4.62577C17.0816 2.55527 16.2851 1.73877 15.0291 1.73877C13.7731 1.73877 12.9761 2.55527 12.9761 4.62577C12.9761 6.69627 13.7731 7.51277 15.0291 7.51277Z" stroke="#000000" stroke-width="0.5" stroke-linecap="round" stroke-linejoin="round"/>
</svg>
